<svg xmlns="http://www.w3.org/2000/svg" viewBox="0 0 120 72"><defs><style>.cls-1{fill:#fff;}</style></defs><g id="Layer_2" data-name="Layer 2"><g id="fill"><path class="cls-1" d="M120,26.67V45.33A2.66,2.66,0,0,1,117.33,48H98.67A2.66,2.66,0,0,1,96,45.33V29.12A5.12,5.12,0,0,0,90.88,24H77.12A5.12,5.12,0,0,0,72,29.12V42.88A5.12,5.12,0,0,0,77.12,48H93.33A2.66,2.66,0,0,1,96,50.67V69.33A2.66,2.66,0,0,1,93.33,72H74.67A2.66,2.66,0,0,1,72,69.33V53.12A5.12,5.12,0,0,0,66.88,48H53.12A5.12,5.12,0,0,0,48,53.12V69.33A2.66,2.66,0,0,1,45.33,72H26.67A2.66,2.66,0,0,1,24,69.33V50.67A2.66,2.66,0,0,1,26.67,48H42.88A5.12,5.12,0,0,0,48,42.88V29.12A5.12,5.12,0,0,0,42.88,24H29.12A5.12,5.12,0,0,0,24,29.12V45.33A2.66,2.66,0,0,1,21.33,48H2.67A2.66,2.66,0,0,1,0,45.33V26.67A2.66,2.66,0,0,1,2.67,24H18.88A5.12,5.12,0,0,0,24,18.88V2.67A2.66,2.66,0,0,1,26.67,0H45.33A2.66,2.66,0,0,1,48,2.67V18.88A5.12,5.12,0,0,0,53.12,24H66.88A5.12,5.12,0,0,0,72,18.88V2.67A2.66,2.66,0,0,1,74.67,0H93.33A2.66,2.66,0,0,1,96,2.67V18.88A5.12,5.12,0,0,0,101.12,24h16.21A2.66,2.66,0,0,1,120,26.67Z"/></g></g></svg>